<?xml version="1.0" standalone="no"?><!DOCTYPE svg PUBLIC "-//W3C//DTD SVG 1.1//EN" "http://www.w3.org/Graphics/SVG/1.1/DTD/svg11.dtd"><svg t="1668783155946" class="icon" viewBox="0 0 1024 1024" version="1.1" xmlns="http://www.w3.org/2000/svg" p-id="28229" xmlns:xlink="http://www.w3.org/1999/xlink" width="16" height="16"><path d="M846.1 98.5H177.9c-43.7 0-79.4 35.7-79.4 79.4v668.2c0 43.7 35.7 79.4 79.4 79.4h668.2c43.7 0 79.4-35.7 79.4-79.4V177.9c0-43.7-35.7-79.4-79.4-79.4z m-620.7 187c0-34.2 16.8-51.2 50.6-51.2h130.5c34.2 0 51.2 17.1 51.2 51.2v386.7c0 15.9-8.2 23.9-24.6 23.9-15.9 0-23.9-8-23.9-23.9V306.7c0-15.9-8-23.9-23.9-23.9h-88.1c-15.9 0-23.9 8-23.9 23.9v365.5c0 15.9-8 23.9-23.9 23.9-15.9 0-23.9-8-23.9-23.9V285.5zM252 808.2c-7.7 7.3-14.8 10.9-21.2 10.9-15.5-2.3-24.6-9.3-27.3-21.2 0.4-8.2 3.2-15.5 8.2-21.9 36.9-30.1 62.4-59.4 76.5-88.1 16.8-36 25.3-75.8 25.3-119.6v-235c0.4-15.5 8.4-23.5 23.9-23.9 14.6 0.5 22.5 8.4 23.9 23.9v235c0 40.5-8.2 81.3-24.6 122.3-14.1 38.8-42.3 77.9-84.7 117.6z m210.5-26.7c0 14.1-8 21.2-23.9 21.2-9.1 0-16.2-5.2-21.2-15.7-20.5-37.3-41.9-66.7-64.2-88.1v-13c2.3-10.9 9.3-17.3 21.2-19.1 10 0 17.3 3.7 21.9 10.9 22.3 21.4 44.4 52.6 66.3 93.6v10.2z m334.1-442.7H655.1v127.8h106.6c28.2 0 42.4 13.4 42.4 40.3v261.7c0 26.4-14.1 39.6-42.4 39.6H534.9c-26.9 0-40.3-13.2-40.3-39.6V506.9c0-26.9 13.4-40.3 40.3-40.3h71.7V229.5c0-16.4 8-24.6 23.9-24.6 16.4 0 24.6 8.2 24.6 24.6v60.8h141.4c15.9 0 23.9 8.2 23.9 24.6 0.1 15.9-7.9 23.9-23.8 23.9z m0 0" p-id="28230" fill="#3245df"></path><path d="M545.1 530.8v213.8c0 10.5 4.5 15.7 13.7 15.7h179c10.5 0 15.7-5.2 15.7-15.7V530.8c0-10.5-5.2-15.7-15.7-15.7h-179c-9.1 0-13.7 5.2-13.7 15.7z m0 0" p-id="28231" fill="#3245df"></path></svg>