<?xml version="1.0" standalone="no"?><!DOCTYPE svg PUBLIC "-//W3C//DTD SVG 1.1//EN" "http://www.w3.org/Graphics/SVG/1.1/DTD/svg11.dtd"><svg t="1668783031452" class="icon" viewBox="0 0 1024 1024" version="1.1" xmlns="http://www.w3.org/2000/svg" p-id="27851" xmlns:xlink="http://www.w3.org/1999/xlink" width="16" height="16"><path d="M1024 862.826667a161.152 161.152 0 0 1-161.173333 161.173333h-701.632a161.152 161.152 0 0 1-161.173334-161.173333v-701.632a161.194667 161.194667 0 0 1 161.173334-161.173334h701.632a161.194667 161.194667 0 0 1 161.173333 161.173334v701.632z" fill="#306FB6" p-id="27852"></path><path d="M828.842667 250.261333h-173.461334v-36.522666a17.066667 17.066667 0 0 0-17.066666-17.066667h-41.941334a17.045333 17.045333 0 0 0-17.045333 17.066667v263.296h-24.896a17.066667 17.066667 0 0 0-17.045333 17.066666V810.218667a17.066667 17.066667 0 0 0 17.045333 17.088h257.365333a17.066667 17.066667 0 0 0 17.066667-17.088v-58.986667h-0.256v-198.144h0.256v-58.986667a17.066667 17.066667 0 0 0-17.066667-17.066666H655.381333v-150.72h173.461334a17.066667 17.066667 0 0 0 17.066666-17.066667v-41.941333a17.066667 17.066667 0 0 0-17.066666-17.045334z m-93.376 302.848c9.429333 0 17.045333 7.637333 17.045333 17.066667v164.010667a17.066667 17.066667 0 0 1-17.045333 17.066666h-104.981334a17.045333 17.045333 0 0 1-17.045333-17.066666v-164.010667a17.066667 17.066667 0 0 1 17.045333-17.066667h104.981334zM197.909333 657.408h41.941334a17.088 17.088 0 0 0 17.088-17.088v-358.741333h174.528v358.741333a17.066667 17.066667 0 0 0 17.045333 17.088h41.941333a17.088 17.088 0 0 0 17.088-17.088v-417.749333c0-9.408-7.658667-17.066667-17.088-17.066667h-292.522666a17.066667 17.066667 0 0 0-17.045334 17.066667v417.749333a17.024 17.024 0 0 0 17.024 17.088z" fill="#FFFFFF" p-id="27853"></path><path d="M492.970667 739.2v-0.170667a110.656 110.656 0 0 1-110.656-110.656h-0.106667v-296.042666a17.066667 17.066667 0 0 0-17.066667-17.045334h-41.941333a17.045333 17.045333 0 0 0-17.045333 17.045334v296.042666h-0.362667a110.677333 110.677333 0 0 1-110.677333 110.656v0.170667a17.045333 17.045333 0 0 0-17.045334 17.066667v42.112a17.066667 17.066667 0 0 0 17.045334 17.066666 186.602667 186.602667 0 0 0 148.928-74.176 186.624 186.624 0 0 0 148.928 74.176 17.045333 17.045333 0 0 0 17.045333-17.066666v-42.112a17.024 17.024 0 0 0-17.045333-17.066667z" fill="#FFFFFF" p-id="27854"></path><path d="M865.450667 873.685333c17.664-3.797333 15.253333-24.896 14.741333-29.504-0.874667-7.125333-9.237333-19.541333-20.586667-18.581333-14.293333 1.28-16.362667 21.930667-16.362666 21.930667-1.962667 9.557333 4.608 29.952 22.208 26.154666z m18.752 36.693334c-0.533333 1.493333-1.664 5.290667-0.682667 8.597333 1.962667 7.402667 8.405333 7.744 8.405333 7.744h9.258667v-22.613333h-9.898667a10.837333 10.837333 0 0 0-7.082666 6.272z m14.037333-72.085334c9.749333 0 17.621333-11.221333 17.621333-25.109333 0-13.866667-7.872-25.088-17.621333-25.088-9.728 0-17.642667 11.221333-17.642667 25.088 0 13.888 7.893333 25.109333 17.642667 25.109333z m41.984 1.664c13.034667 1.706667 21.418667-12.202667 23.082667-22.762666 1.706667-10.538667-6.698667-22.762667-15.936-24.853334-9.258667-2.112-20.778667 12.672-21.845334 22.357334-1.258667 11.797333 1.685333 23.573333 14.698667 25.258666z m31.936 61.973334s-20.16-15.594667-31.936-32.448c-15.957333-24.874667-38.634667-14.762667-46.208-2.112-7.552 12.650667-19.328 20.629333-20.992 22.741333-1.685333 2.090667-24.362667 14.336-19.328 36.672 5.034667 22.336 22.72 21.909333 22.72 21.909333s13.013333 1.28 28.138667-2.112c15.104-3.349333 28.117333 0.832 28.117333 0.832s35.306667 11.818667 44.970667-10.944c9.621333-22.72-5.482667-34.538667-5.482667-34.538666z m-60.394667 33.877333h-22.954666c-9.92-1.984-13.866667-8.746667-14.357334-9.898667-0.490667-1.173333-3.306667-6.613333-1.813333-15.850666 4.288-13.866667 16.490667-14.848 16.490667-14.848h12.224v-15.04l10.410666 0.149333v55.488z m42.752-0.170667h-26.410666c-10.24-2.624-10.709333-9.92-10.709334-9.92v-29.205333l10.709334-0.170667v26.261334c0.64 2.794667 4.117333 3.306667 4.117333 3.306666h10.88v-29.397333h11.413333v39.125333z m37.376-77.994666c0-5.034667-4.181333-20.224-19.733333-20.224-15.552 0-17.642667 14.336-17.642667 24.469333 0 9.685333 0.810667 23.189333 20.16 22.741333 19.328-0.426667 17.216-21.909333 17.216-26.986666z" fill="#FFFFFF" p-id="27855"></path></svg>